<?xml version="1.0" standalone="no"?>
<!DOCTYPE svg PUBLIC "-//W3C//DTD SVG 20010904//EN"
 "http://www.w3.org/TR/2001/REC-SVG-20010904/DTD/svg10.dtd">
<svg version="1.0" xmlns="http://www.w3.org/2000/svg"
 width="768.000000pt" height="768.000000pt" viewBox="0 0 768.000000 768.000000"
 preserveAspectRatio="xMidYMid meet">

<g transform="translate(0.000000,768.000000) scale(0.100000,-0.100000)"
fill="#000000" stroke="none">
<path d="M0 7119 l0 -561 33 40 c81 101 83 105 78 135 -2 12 32 67 41 67 4 0
8 5 8 10 0 19 -39 10 -45 -10 -4 -11 -11 -18 -16 -14 -6 3 -5 12 3 21 7 8 17
24 23 36 5 11 19 25 30 31 24 14 42 34 112 126 32 41 61 80 65 85 84 107 118
151 118 156 0 4 13 21 30 39 16 18 27 37 24 42 -7 11 -17 1 -132 -130 -41 -46
-88 -99 -105 -117 -18 -18 -44 -48 -60 -67 l-28 -33 12 33 c6 17 15 32 20 32
5 0 9 6 9 14 0 8 8 21 18 28 18 14 30 31 61 89 11 19 39 57 63 85 24 27 54 63
67 79 12 17 42 51 67 76 24 26 44 55 44 64 0 9 9 28 20 42 24 30 26 45 5 37
-8 -4 -15 -2 -15 3 0 10 67 93 84 105 6 4 7 10 3 14 -3 4 -23 -6 -42 -21 -20
-15 -39 -24 -43 -20 -4 3 1 11 11 16 44 25 6 29 -273 29 l-290 0 0 -561z m500
436 c-7 -9 -15 -13 -17 -11 -7 7 7 26 19 26 6 0 6 -6 -2 -15z m-330 -605 c0
-5 -4 -10 -10 -10 -5 0 -10 5 -10 10 0 6 5 10 10 10 6 0 10 -4 10 -10z"/>
<path d="M2878 7045 c-4 -4 -27 -9 -50 -11 -24 -2 -72 -11 -108 -20 -36 -8
-85 -20 -110 -26 -47 -11 -284 -82 -335 -100 -84 -31 -363 -176 -455 -237 -93
-62 -313 -250 -304 -260 7 -8 123 42 128 55 3 8 14 14 25 14 11 0 40 9 66 20
91 39 310 87 555 121 89 12 324 15 388 5 39 -7 303 -36 362 -40 19 -2 53 -6
75 -10 106 -19 151 -29 165 -34 23 -8 43 -13 70 -17 14 -2 57 -14 95 -26 39
-12 87 -23 107 -23 20 0 35 -3 32 -8 -2 -4 10 -10 28 -13 66 -12 73 -13 86
-14 7 -1 11 -4 9 -8 -3 -5 7 -8 21 -9 15 0 81 -17 147 -36 66 -20 134 -38 150
-41 17 -3 52 -13 79 -21 27 -9 59 -16 70 -16 12 0 93 -29 180 -65 88 -36 168
-65 178 -65 11 0 17 -3 15 -7 -3 -5 8 -8 24 -9 16 -1 29 3 29 7 0 5 -6 9 -13
9 -8 0 -22 10 -33 22 -14 16 2 10 60 -21 43 -23 91 -47 105 -52 25 -9 25 -8 6
7 -30 23 -197 106 -202 100 -6 -5 -33 18 -33 28 0 4 8 2 18 -3 60 -33 162 -72
171 -66 7 4 10 1 9 -7 -2 -8 5 -12 17 -10 16 2 17 1 5 -7 -13 -9 -12 -11 4
-11 11 0 51 -21 88 -46 46 -30 75 -44 86 -39 14 5 12 9 -13 22 -16 9 -25 18
-18 20 6 2 29 -7 50 -20 80 -50 203 -109 217 -104 8 3 22 -3 32 -14 20 -22 42
-26 24 -4 -7 9 -10 18 -7 22 6 6 25 -6 79 -47 l26 -20 -11 25 c-7 14 -15 25
-19 25 -5 0 -8 5 -8 10 0 17 13 11 49 -20 35 -31 51 -37 51 -20 0 6 4 10 10
10 5 0 7 -8 3 -17 -5 -14 -3 -16 7 -6 10 9 19 5 44 -18 35 -33 48 -37 39 -12
-4 10 -2 14 5 9 6 -3 13 -2 16 3 4 5 2 12 -4 16 -5 3 -10 11 -10 17 0 5 8 0
19 -13 10 -13 17 -29 14 -35 -2 -6 8 -17 24 -23 15 -6 39 -16 52 -21 20 -9 18
-4 -13 30 -20 22 -36 43 -36 46 0 7 57 -34 65 -47 4 -5 11 -7 16 -3 5 3 9 2 8
-3 -4 -21 2 -43 12 -43 6 0 8 9 4 21 -5 15 -4 19 4 15 7 -5 11 2 11 16 0 23 0
22 24 -5 15 -18 30 -26 37 -21 8 5 9 3 4 -6 -4 -7 -2 -16 6 -21 22 -14 32 -10
24 9 -3 9 10 2 29 -17 20 -19 36 -30 36 -24 0 7 -4 15 -10 18 -5 3 -10 11 -10
16 0 6 5 7 10 4 6 -3 10 -2 10 4 0 6 7 8 15 5 11 -5 14 -2 9 12 -4 11 10 -3
31 -30 21 -28 41 -44 43 -38 2 7 -2 19 -8 27 -8 10 -9 15 -2 15 6 0 26 -20 44
-45 39 -53 50 -56 42 -12 l-6 32 18 -23 c53 -66 63 -76 70 -70 4 4 2 14 -4 21
-7 8 -9 17 -5 20 3 4 -1 9 -10 13 -12 4 -15 13 -10 32 4 15 2 23 -4 19 -6 -4
-8 3 -5 19 4 23 5 23 18 7 7 -10 14 -23 14 -28 0 -6 6 -17 13 -24 6 -6 12 -15
12 -19 1 -18 27 -52 36 -47 5 4 5 14 -2 26 -7 15 -7 24 1 35 17 19 30 8 30
-25 0 -16 7 -34 15 -41 8 -7 15 -19 15 -26 0 -8 5 -14 11 -14 7 0 8 7 4 18 -3
9 -9 31 -11 47 l-5 30 14 -30 14 -30 5 28 c3 18 0 34 -10 43 -11 11 -12 21 -5
37 10 20 11 19 21 -18 6 -22 14 -52 17 -67 3 -16 9 -28 14 -28 4 0 6 12 4 28
l-4 27 16 -25 c15 -24 15 -22 11 48 -3 53 -1 72 7 69 13 -4 26 -62 26 -124 1
-23 6 -45 13 -49 7 -4 8 -3 4 5 -4 6 -3 18 3 25 12 14 19 105 9 121 -3 6 -4
34 -3 63 1 29 -2 55 -7 58 -11 7 -10 44 1 44 8 0 26 -100 38 -210 5 -48 31
-118 32 -87 1 9 6 17 12 17 5 0 9 8 8 18 -4 45 2 112 11 112 6 0 10 -21 11
-47 0 -53 12 -92 22 -76 4 5 4 21 1 34 -3 13 -6 119 -8 234 -3 199 -12 270
-37 305 -8 11 -9 8 -4 -15 22 -102 27 -144 20 -161 -6 -15 -10 -7 -15 31 -7
49 -50 189 -56 182 -2 -1 3 -34 11 -72 15 -70 22 -405 9 -392 -9 9 -18 124
-17 215 0 39 -3 72 -8 72 -5 0 -9 20 -9 44 0 25 -4 48 -10 51 -10 6 -12 -26
-12 -190 l0 -60 -9 75 c-5 41 -11 81 -14 88 -3 8 0 10 8 6 9 -6 9 -5 0 7 -11
13 -16 70 -14 152 2 55 -16 45 -24 -14 -8 -55 -22 -55 -27 1 -2 19 -7 34 -11
32 -5 -2 -15 5 -23 15 -14 19 -19 7 -8 -21 3 -9 10 -13 15 -10 5 3 9 -10 8
-28 -1 -31 -2 -31 -9 -8 -7 25 -7 25 -12 -5 -4 -26 -5 -28 -12 -10 -25 62 -42
92 -67 120 -16 16 -29 33 -29 38 0 4 -4 7 -9 7 -7 0 4 -26 69 -161 12 -25 15
-41 8 -50 -8 -11 -9 -10 -4 4 3 9 1 17 -3 17 -5 0 -14 15 -21 33 -10 28 -13
30 -19 12 -7 -16 -9 -15 -14 11 -3 17 -15 41 -27 55 l-21 24 5 -25 c5 -21 4
-21 -8 5 -8 17 -10 32 -5 33 16 6 10 22 -9 22 -10 0 -25 11 -32 25 -7 14 -17
25 -22 25 -11 0 -10 -8 7 -38 32 -58 70 -155 126 -320 33 -96 59 -175 59 -177
0 -3 -7 -2 -15 1 -8 4 -13 10 -10 14 2 4 -6 33 -19 65 -13 32 -25 52 -28 44
-3 -9 -7 -5 -10 9 -4 12 -2 20 3 16 5 -3 9 2 9 10 0 20 -17 29 -24 14 -3 -7
-4 5 -1 27 4 25 2 35 -3 27 -7 -10 -13 -4 -26 21 -9 19 -16 41 -16 49 0 8 -4
18 -9 23 -5 6 -26 53 -46 105 -20 52 -43 103 -51 114 -14 20 -14 20 -14 -1 0
-12 5 -25 10 -28 6 -3 10 -11 10 -16 0 -18 -20 1 -40 39 -10 20 -19 31 -20 24
0 -7 5 -22 10 -33 11 -19 -3 -28 -15 -9 -3 5 -12 7 -20 3 -8 -3 -15 1 -15 8 0
7 -3 10 -6 6 -3 -3 -2 -12 2 -19 4 -7 9 -21 9 -30 1 -13 -2 -15 -11 -7 -7 6
-16 18 -19 27 -3 10 -17 25 -30 35 -24 17 -24 17 -19 0 4 -16 4 -16 -8 1 -33
46 -51 67 -55 62 -3 -3 4 -21 16 -41 19 -33 19 -35 2 -26 -10 6 -21 17 -25 26
-3 8 -11 15 -17 15 -8 0 -8 -4 1 -15 21 -25 1 -17 -41 17 -42 34 -64 32 -33
-4 20 -23 3 -17 -28 10 -16 14 -18 13 -19 -4 -1 -10 -1 -22 0 -26 2 -16 -18
-7 -23 10 -8 24 -76 90 -76 73 0 -17 -38 -5 -69 23 -26 23 -26 23 7 -41 23
-43 12 -37 -53 32 -62 65 -89 80 -66 36 15 -26 -1 -35 -25 -13 -21 18 -60 42
-69 42 -3 0 3 -12 12 -27 17 -26 14 -25 -35 11 -54 39 -80 43 -47 6 10 -11 15
-20 12 -20 -3 0 -20 14 -36 32 -31 33 -55 33 -30 1 8 -10 -6 0 -30 21 -29 25
-46 35 -49 27 -2 -7 1 -18 7 -24 6 -6 11 -16 11 -21 0 -6 -11 2 -25 17 -14 15
-31 27 -37 27 -7 0 -23 10 -36 23 l-25 22 12 -22 c10 -20 9 -23 -6 -23 -10 0
-27 7 -37 15 -11 8 -27 15 -35 15 -9 0 -29 12 -46 26 -21 18 -31 22 -35 12 -7
-19 -31 -16 -67 10 -17 12 -37 22 -45 22 -8 0 -19 5 -26 12 -18 18 -15 -4 5
-31 15 -22 11 -22 -53 12 -96 49 -168 77 -172 67 -2 -6 -10 -6 -20 0 -32 16
-151 42 -162 35 -8 -5 -2 -14 17 -26 15 -10 25 -19 22 -19 -13 0 -68 31 -79
45 -7 8 -20 15 -30 15 -10 0 -36 7 -59 15 -44 15 -54 5 -19 -19 12 -9 19 -16
15 -16 -4 0 -21 10 -38 22 -24 18 -32 20 -38 9 -7 -10 -9 -10 -14 2 -3 9 -26
18 -59 22 -29 4 -57 10 -63 14 -5 3 -23 7 -40 7 -16 1 -41 5 -55 8 -81 18
-165 32 -245 41 -27 3 -65 7 -82 10 -18 2 -35 -1 -39 -6 -3 -5 -10 -6 -16 -3
-6 4 -27 8 -47 10 -20 1 -49 5 -66 9 -49 9 -349 18 -357 10z m1209 -181 c-3
-3 -12 -4 -19 -1 -8 3 -5 6 6 6 11 1 17 -2 13 -5z m43 -34 c0 -5 -4 -10 -9
-10 -6 0 -13 5 -16 10 -3 6 1 10 9 10 9 0 16 -4 16 -10z m341 -27 c13 -16 12
-17 -3 -4 -10 7 -18 15 -18 17 0 8 8 3 21 -13z m-601 -40 c0 -7 -39 17 -46 28
-3 6 5 3 20 -6 14 -10 26 -19 26 -22z m-65 17 c3 -6 -1 -7 -9 -4 -18 7 -21 14
-7 14 6 0 13 -4 16 -10z m408 -6 c9 -4 17 -10 17 -15 0 -5 8 -9 17 -9 9 0 13
-3 10 -7 -8 -8 -87 29 -87 40 0 5 6 6 13 3 6 -3 20 -9 30 -12z m-838 -84 c3
-5 1 -10 -4 -10 -6 0 -11 5 -11 10 0 6 2 10 4 10 3 0 8 -4 11 -10z m1466 -7
c13 -16 12 -17 -3 -4 -10 7 -18 15 -18 17 0 8 8 3 21 -13z m-1416 -3 c3 -6 -1
-7 -9 -4 -18 7 -21 14 -7 14 6 0 13 -4 16 -10z m370 0 c3 -5 2 -10 -4 -10 -5
0 -13 5 -16 10 -3 6 -2 10 4 10 5 0 13 -4 16 -10z m190 0 c3 -6 -1 -7 -9 -4
-18 7 -21 14 -7 14 6 0 13 -4 16 -10z m81 -11 c19 -22 19 -22 -3 -8 -13 8 -23
17 -23 21 0 12 6 9 26 -13z m839 1 c10 -11 13 -20 7 -20 -6 0 -16 9 -22 20 -6
11 -9 20 -7 20 2 0 12 -9 22 -20z m-1330 -28 c-3 -3 -11 0 -18 7 -9 10 -8 11
6 5 10 -3 15 -9 12 -12z m392 12 c-3 -3 -12 -4 -19 -1 -8 3 -5 6 6 6 11 1 17
-2 13 -5z m98 -22 c-3 -3 -11 0 -18 7 -9 10 -8 11 6 5 10 -3 15 -9 12 -12z
m1390 -100 c-2 -3 -12 -1 -22 2 -15 6 -15 9 -3 16 13 8 35 -8 25 -18z m174
-86 c0 -7 -2 -6 -6 2 -2 6 -11 12 -19 12 -9 0 -12 5 -9 10 8 13 35 -6 34 -24z
m-79 -37 c0 -6 -4 -7 -10 -4 -5 3 -10 11 -10 16 0 6 5 7 10 4 6 -3 10 -11 10
-16z m360 -56 c0 -8 9 -28 21 -44 14 -20 16 -27 6 -23 -8 3 -18 13 -21 22 -12
32 -39 77 -55 90 -9 8 -11 11 -5 8 7 -3 15 2 19 12 5 14 9 11 21 -17 8 -18 14
-40 14 -48z m-330 1 c12 -19 20 -37 17 -40 -5 -5 -47 57 -47 70 0 13 9 4 30
-30z m290 -59 c0 -5 -5 -3 -10 5 -5 8 -10 20 -10 25 0 6 5 3 10 -5 5 -8 10
-19 10 -25z m-260 -5 c0 -5 -2 -10 -4 -10 -3 0 -8 5 -11 10 -3 6 -1 10 4 10 6
0 11 -4 11 -10z m20 -41 c0 -6 -4 -7 -10 -4 -5 3 -10 11 -10 16 0 6 5 7 10 4
6 -3 10 -11 10 -16z m344 -19 l7 -25 -15 25 c-17 28 -21 50 -7 35 5 -6 12 -21
15 -35z m-78 0 c5 0 17 -18 26 -40 9 -22 15 -40 14 -40 -2 0 -13 8 -25 19 -13
12 -19 25 -15 35 4 11 2 16 -6 14 -6 -2 -16 8 -21 22 -8 22 -8 23 5 8 7 -10
17 -18 22 -18z m107 -70 c4 -14 2 -32 -3 -40 -5 -8 -10 -13 -10 -10 -10 71 0
108 13 50z m192 -25 c4 -21 3 -25 -3 -15 -15 24 -26 67 -14 55 6 -5 13 -23 17
-40z m-244 -32 c15 -41 5 -48 -14 -9 -9 20 -12 36 -7 36 6 0 15 -12 21 -27z
m306 5 c-3 -8 -6 -5 -6 6 -1 11 2 17 5 13 3 -3 4 -12 1 -19z m-877 -8 c0 -5
-2 -10 -4 -10 -3 0 -8 5 -11 10 -3 6 -1 10 4 10 6 0 11 -4 11 -10z m644 -6 c3
-8 2 -12 -4 -9 -6 3 -10 10 -10 16 0 14 7 11 14 -7z m231 -161 c6 -36 5 -37
-9 -19 -9 11 -16 32 -16 48 0 15 -5 28 -11 28 -5 0 -8 4 -5 9 4 5 2 21 -4 36
-6 15 -7 32 -3 38 8 13 37 -75 48 -140z m-840 127 c3 -5 2 -10 -4 -10 -5 0
-13 5 -16 10 -3 6 -2 10 4 10 5 0 13 -4 16 -10z m625 -11 c0 -6 -4 -7 -10 -4
-5 3 -10 11 -10 16 0 6 5 7 10 4 6 -3 10 -11 10 -16z m-220 -44 c0 -5 -5 -3
-10 5 -5 8 -10 20 -10 25 0 6 5 3 10 -5 5 -8 10 -19 10 -25z m377 3 c-3 -7 -5
-2 -5 12 0 14 2 19 5 13 2 -7 2 -19 0 -25z m-133 -25 c17 -50 5 -59 -15 -10
-7 17 -19 37 -27 42 -11 9 -9 11 7 11 15 0 24 -11 35 -43z m-973 22 c25 -10
29 -14 13 -15 -11 0 -29 7 -40 15 -25 19 -15 19 27 0z m345 -22 c-7 -7 -26 7
-26 19 0 6 6 6 15 -2 9 -7 13 -15 11 -17z m214 -18 c14 -19 14 -19 -2 -6 -10
7 -18 18 -18 24 0 6 1 8 3 6 1 -2 9 -13 17 -24z m-240 -25 c0 -15 -5 -12 -26
11 -19 22 -19 22 4 10 12 -6 22 -16 22 -21z m295 20 c3 -5 1 -10 -4 -10 -6 0
-11 5 -11 10 0 6 2 10 4 10 3 0 8 -4 11 -10z m95 -36 c13 -34 13 -44 -4 -44
-9 0 -12 7 -9 19 3 10 0 22 -6 25 -14 9 -14 26 -1 26 6 0 15 -12 20 -26z
m-190 -15 c0 -6 -4 -7 -10 -4 -5 3 -10 11 -10 16 0 6 5 7 10 4 6 -3 10 -11 10
-16z m569 -39 c0 -15 -3 -19 -6 -10 -3 8 -10 18 -15 21 -5 3 -6 13 -2 23 9 23
24 1 23 -34z m-66 -2 c6 -22 5 -22 -8 -4 -17 22 -20 40 -6 32 5 -3 11 -16 14
-28z m-43 1 c0 -6 -4 -7 -10 -4 -5 3 -10 11 -10 16 0 6 5 7 10 4 6 -3 10 -11
10 -16z m-302 -14 c-3 -3 -9 2 -12 12 -6 14 -5 15 5 6 7 -7 10 -15 7 -18z
m449 3 c-3 -8 -6 -5 -6 6 -1 11 2 17 5 13 3 -3 4 -12 1 -19z m-347 -8 c0 -5
-2 -10 -4 -10 -3 0 -8 5 -11 10 -3 6 -1 10 4 10 6 0 11 -4 11 -10z m220 -42
c0 -17 -3 -28 -7 -24 -10 10 -12 67 -2 60 5 -3 9 -19 9 -36z m138 -4 c-3 -14
-5 -12 -10 9 -3 19 -2 25 4 19 6 -6 8 -18 6 -28z m-268 5 c0 -6 -4 -7 -10 -4
-5 3 -10 11 -10 16 0 6 5 7 10 4 6 -3 10 -11 10 -16z m178 -4 c-3 -3 -9 2 -12
12 -6 14 -5 15 5 6 7 -7 10 -15 7 -18z m229 -37 c-3 -8 -6 -5 -6 6 -1 11 2 17
5 13 3 -3 4 -12 1 -19z"/>
<path d="M53 6571 c-30 -13 -52 -45 -40 -57 8 -8 40 15 60 43 23 30 20 33 -20
14z"/>
<path d="M40 6498 c0 -4 -6 -8 -14 -8 -20 0 -26 -32 -26 -150 l0 -105 40 55
c41 57 54 94 25 70 -13 -11 -14 -10 -9 4 4 10 12 15 20 12 7 -3 18 3 26 12 9
11 10 14 1 8 -8 -4 -13 -1 -13 9 0 14 -3 14 -31 0 -58 -31 -47 -8 29 55 15 13
6 33 -10 24 -7 -5 -9 -1 -5 9 4 11 0 15 -14 14 -10 -1 -19 -5 -19 -9z"/>
<path d="M184 6103 c-20 -38 -43 -79 -51 -91 -8 -13 -12 -26 -9 -29 8 -8 87
118 93 149 3 16 10 25 16 21 6 -3 7 -1 3 5 -4 7 -9 12 -11 12 -2 0 -21 -30
-41 -67z"/>
<path d="M6496 6147 c3 -10 9 -15 12 -12 3 3 0 11 -7 18 -10 9 -11 8 -5 -6z"/>
<path d="M6456 6070 c-7 -31 -6 -73 5 -180 5 -47 11 -107 13 -134 6 -66 16
-71 17 -8 1 29 1 62 2 75 0 12 -3 51 -8 87 -5 36 -7 81 -6 100 1 19 -2 46 -7
60 l-10 25 -6 -25z"/>
<path d="M3349 5905 c-18 -61 -28 -79 -53 -95 -28 -18 -32 -18 -43 -3 -7 9 -9
21 -6 27 4 6 0 6 -8 -1 -13 -10 -16 -10 -17 0 -10 90 -40 173 -43 117 -1 -14
-1 -29 0 -34 1 -4 -3 -14 -9 -21 -6 -7 -14 -46 -17 -87 -4 -40 -8 -67 -11 -59
-3 8 -7 9 -11 3 -3 -5 -16 -12 -27 -16 -19 -6 -23 -1 -33 38 -6 25 -11 53 -11
64 0 10 -7 27 -15 38 -14 17 -15 13 -13 -56 1 -54 -1 -74 -10 -72 -7 1 -12 -7
-12 -18 0 -11 -4 -20 -10 -20 -5 0 -10 8 -10 18 0 10 -3 13 -8 7 -4 -6 -16
-11 -27 -10 -11 0 -26 -6 -34 -13 -17 -17 -18 -16 -25 43 -4 28 -10 61 -13 75
l-7 25 -7 -25 c-4 -14 -8 -41 -8 -60 -1 -19 -8 -46 -15 -59 l-13 -24 -17 24
-17 24 1 -30 c3 -44 -1 -53 -10 -25 -4 14 -8 48 -9 77 -1 28 -5 55 -11 58 -10
6 -12 -4 -14 -92 -1 -66 -21 -78 -36 -23 -6 22 -13 40 -17 40 -8 0 6 -100 18
-121 5 -11 5 -26 0 -41 -9 -21 -10 -21 -11 -3 -1 11 -12 43 -26 70 l-25 50 5
-42 c2 -24 0 -43 -4 -43 -5 0 -11 -10 -13 -22 -4 -20 -4 -19 -6 5 -1 24 -21
41 -21 17 0 -20 -21 -9 -38 20 -9 16 -20 30 -25 30 -4 0 -3 -8 3 -17 22 -38
49 -123 40 -123 -6 0 -10 7 -10 15 0 8 -4 15 -10 15 -5 0 -10 9 -10 19 0 11
-4 23 -10 26 -12 7 -12 1 -1 -48 8 -34 7 -37 -10 -32 -10 4 -27 2 -36 -4 -16
-9 -16 -10 -1 -11 16 0 45 -60 29 -60 -5 0 -11 10 -14 22 -6 21 -7 21 -27 3
-11 -10 -20 -13 -20 -7 0 7 5 12 12 12 6 0 1 10 -11 22 -21 19 -24 20 -33 4
-5 -9 -13 -14 -19 -11 -5 4 -9 -1 -9 -9 0 -24 -30 -19 -39 7 -5 12 -12 20 -17
18 -5 -2 -23 23 -41 55 -35 64 -42 61 -18 -6 8 -23 15 -45 15 -48 0 -9 -21 13
-34 36 -46 79 -76 123 -70 102 9 -34 48 -110 79 -155 13 -21 22 -41 19 -46 -9
-15 41 -79 144 -183 55 -56 97 -106 95 -112 -3 -10 -147 78 -218 135 -15 11
-35 21 -44 21 -9 0 4 -14 29 -30 44 -29 79 -54 190 -136 30 -22 84 -58 120
-79 74 -45 64 -56 -27 -30 -80 23 -150 64 -132 77 11 8 11 9 -1 5 -9 -3 -38
10 -65 28 -27 19 -52 32 -56 29 -8 -4 -119 118 -119 131 0 12 -42 76 -47 71
-7 -7 32 -77 84 -147 61 -84 149 -162 174 -156 10 3 23 -1 28 -7 8 -9 -1 -13
-35 -15 -35 -1 -64 7 -125 35 -43 20 -79 41 -79 46 0 4 -6 8 -14 8 -8 0 -16 4
-18 8 -5 13 -109 92 -121 92 -6 0 3 -15 19 -32 61 -67 64 -74 17 -48 -24 13
-43 28 -43 34 0 6 -4 5 -9 -3 -7 -11 -15 -10 -45 8 -39 24 -46 19 -19 -13 16
-17 13 -17 -17 4 -19 13 -45 32 -57 43 -13 11 -23 16 -23 10 0 -22 44 -64 103
-99 71 -41 184 -123 211 -152 13 -15 14 -22 5 -28 -7 -4 -10 -3 -6 3 7 12 -14
24 -53 30 -14 2 -32 11 -41 19 -19 17 -29 18 -29 2 0 -7 22 -23 48 -36 26 -12
57 -30 69 -40 l23 -17 -25 -1 c-14 -1 -25 2 -25 7 0 5 -10 8 -22 7 -26 -2
-121 63 -211 141 -101 88 -86 56 22 -47 36 -35 56 -58 44 -52 -16 7 -23 7 -23
0 0 -5 -9 -1 -20 10 -11 11 -24 20 -29 20 -5 0 -24 19 -41 43 -24 32 -30 36
-25 17 4 -14 21 -38 37 -54 22 -23 26 -31 16 -39 -9 -6 -8 -7 4 -3 11 3 63
-23 139 -69 67 -42 132 -78 145 -81 27 -7 42 -24 22 -24 -7 -1 1 -7 17 -16 25
-12 26 -13 5 -8 -14 3 -45 7 -70 9 -25 2 -73 12 -107 24 -79 26 -96 27 -58 0
28 -19 28 -20 5 -13 -76 21 -165 79 -242 157 -45 45 -73 69 -63 52 26 -42 32
-49 110 -117 38 -34 70 -65 70 -69 0 -4 6 -14 14 -21 10 -10 12 -10 7 0 -12
20 2 14 90 -37 46 -27 99 -55 118 -62 23 -8 32 -17 28 -27 -4 -12 0 -14 21 -8
20 5 27 3 27 -8 0 -10 9 -14 27 -12 61 7 154 -29 112 -43 -6 -2 -9 0 -6 5 3 5
-18 10 -47 10 -29 1 -67 9 -84 18 -18 9 -42 16 -55 15 -38 -4 -58 1 -52 11 3
5 -8 9 -27 9 -34 -1 -103 23 -188 66 -68 34 -75 31 -15 -7 75 -47 193 -94 257
-102 32 -4 61 -12 64 -18 7 -10 -62 -5 -105 9 -12 3 -11 0 4 -12 l20 -17 -20
5 c-11 3 -48 13 -83 23 -34 9 -65 15 -67 12 -14 -14 233 -84 333 -94 35 -4 59
-11 55 -15 -5 -5 -34 -4 -66 1 -31 6 -81 14 -109 19 -29 5 -73 16 -98 25 -24
8 -46 14 -47 12 -6 -6 64 -36 84 -36 10 0 25 -5 33 -10 10 -7 0 -8 -35 -5 -50
5 -50 5 25 -20 43 -15 110 -28 158 -32 45 -3 85 -9 87 -13 2 -4 -25 -10 -60
-14 -70 -7 -211 16 -318 53 -32 11 -55 16 -52 11 8 -13 181 -67 242 -75 29 -4
55 -11 58 -15 6 -9 -141 -2 -197 10 -52 11 -38 -5 16 -19 53 -13 242 -14 306
-1 27 5 49 5 55 -1 5 -6 2 -9 -10 -10 -19 0 -19 -1 0 -9 11 -5 36 -9 55 -9 20
-1 42 -7 49 -13 11 -10 14 -10 18 0 5 13 39 17 47 4 3 -5 -28 -16 -67 -26 -40
-9 -86 -23 -101 -31 -16 -8 -36 -15 -45 -16 -10 0 -11 -2 -4 -6 7 -2 34 2 60
10 82 26 157 39 161 27 5 -14 23 -13 20 2 -2 6 6 13 17 15 15 3 17 2 6 -5 -19
-14 -7 -28 31 -36 l33 -7 -40 -16 c-69 -28 -271 -154 -322 -200 -48 -45 -43
-48 12 -7 85 62 265 160 265 144 0 -7 6 -7 20 0 11 6 18 15 15 21 -7 10 8 13
18 3 3 -3 -13 -20 -36 -38 -41 -31 -137 -149 -137 -169 0 -5 13 8 29 29 41 57
97 112 132 130 43 22 119 44 119 34 0 -4 29 -5 65 -2 72 5 92 -12 26 -23 -21
-3 -75 -27 -121 -53 -82 -46 -140 -103 -188 -183 -36 -61 -25 -57 22 7 52 73
125 138 188 170 51 26 94 24 61 -3 -17 -14 -17 -14 2 -8 11 4 32 12 47 18 36
15 57 -2 34 -26 -23 -23 -20 -28 9 -15 13 6 22 15 18 21 -4 7 11 8 43 5 27 -3
40 -4 30 -1 -33 9 3 22 42 16 25 -5 33 -3 28 5 -4 7 -15 12 -24 13 -11 0 -12
2 -4 6 8 3 2 15 -19 34 -17 16 -33 29 -36 29 -2 0 -12 7 -21 16 -15 15 -14 16
8 9 22 -7 23 -6 8 9 -9 9 -26 16 -38 16 -12 0 -19 4 -15 10 3 5 -5 16 -18 25
-27 17 -36 68 -11 58 8 -3 21 0 29 7 8 6 19 9 26 5 6 -4 15 -2 19 6 7 10 13 7
28 -12 27 -32 36 -21 18 21 -17 40 -4 80 26 80 11 0 16 5 13 11 -4 6 2 13 14
16 12 3 24 16 27 28 3 13 15 26 27 29 12 4 36 17 52 31 23 19 27 27 17 34 -10
6 -5 11 17 20 16 7 32 20 35 28 4 8 13 13 21 9 8 -3 15 -1 15 4 0 6 9 10 19
10 11 0 21 4 23 8 5 12 79 56 118 69 71 25 102 9 113 -57 23 -139 58 -256 96
-320 20 -34 99 -129 130 -159 72 -65 204 -137 280 -151 125 -23 271 -2 384 57
78 40 187 129 221 179 84 125 116 176 116 184 0 5 12 15 27 22 31 15 22 20
127 -76 34 -32 55 -59 51 -66 -4 -6 -2 -17 4 -23 12 -15 11 -57 -2 -74 -6 -9
-6 -18 1 -26 13 -15 -24 -107 -43 -107 -6 0 -9 -15 -7 -39 3 -32 0 -41 -17
-50 -12 -7 -21 -17 -21 -24 0 -10 -38 -31 -140 -76 -24 -11 -24 -11 5 -6 64
11 195 17 195 9 0 -14 61 -38 95 -37 16 0 64 0 105 0 41 1 129 0 195 -1 116
-2 176 7 232 35 32 17 35 45 7 64 -13 8 -24 23 -24 33 -1 9 -14 35 -30 57 -17
22 -33 48 -36 58 -4 9 -10 17 -15 17 -5 0 -9 6 -9 14 0 7 -11 21 -25 30 -15
10 -22 22 -19 31 4 11 0 15 -16 15 -16 0 -20 4 -16 15 4 10 -2 19 -17 24 -12
5 -33 23 -46 40 -14 18 -30 30 -36 27 -7 -2 -10 4 -8 17 3 16 -6 28 -33 46
-28 18 -34 25 -23 32 11 7 10 9 -3 9 -25 0 -22 17 4 23 32 9 13 22 -27 18 -24
-2 -39 3 -51 18 -10 11 -22 18 -28 15 -6 -3 5 8 24 25 19 17 41 31 50 30 10 0
11 -2 3 -6 -7 -2 -13 -11 -13 -19 0 -10 5 -12 13 -8 8 5 8 3 -2 -9 -7 -9 -17
-14 -22 -11 -5 3 -6 -2 -3 -10 7 -18 24 -22 24 -6 0 6 9 10 20 10 11 0 20 5
20 10 0 6 -4 10 -10 10 -5 0 -10 4 -10 10 0 5 7 7 15 4 18 -7 19 0 3 25 -10
16 -8 23 12 44 13 14 30 23 37 20 14 -5 18 -24 6 -22 -19 3 -33 -2 -33 -12 0
-6 9 -8 20 -4 12 4 20 2 20 -5 0 -8 9 -10 23 -6 16 4 26 -1 35 -15 11 -18 15
-18 33 -5 25 17 49 11 49 -13 0 -18 18 -41 32 -41 15 0 8 23 -18 57 -14 18
-22 38 -19 43 3 6 -2 10 -13 10 -25 0 -59 36 -40 43 9 4 9 6 1 6 -7 1 -23 12
-37 26 -24 24 -24 25 -6 35 27 15 50 12 50 -5 0 -8 5 -15 11 -15 5 0 15 -13
20 -29 8 -23 15 -28 31 -23 l21 5 -21 18 c-12 9 -22 22 -22 28 0 18 28 12 34
-6 3 -11 4 -7 3 7 -2 19 -7 24 -24 23 -23 -3 -37 10 -47 43 -5 16 -2 23 14 27
l21 6 -21 21 c-23 23 -41 20 -22 -3 8 -10 7 -13 -7 -14 -14 -1 -18 6 -17 35 1
31 -3 37 -24 42 -21 5 -22 7 -7 13 28 11 20 28 -10 21 -22 -5 -26 -4 -16 6 8
9 9 20 2 38 -7 18 -6 27 2 32 8 6 8 9 0 14 -6 4 -11 4 -11 0 0 -3 -7 -1 -15 6
-9 7 -13 21 -10 31 5 14 2 16 -16 12 -19 -5 -20 -4 -9 17 11 21 10 22 -9 17
-18 -4 -21 -2 -16 14 5 14 2 19 -14 19 -28 0 -36 17 -11 25 16 5 19 12 14 32
-6 22 -4 25 10 20 9 -4 16 -2 16 3 0 12 -27 13 -34 1 -3 -4 -17 -6 -32 -3 -18
3 -22 7 -13 13 7 4 17 5 21 3 4 -3 8 0 8 5 0 6 -7 11 -15 11 -16 0 -21 29 -5
31 6 1 15 3 20 4 6 1 13 3 18 4 4 1 -5 9 -21 17 -15 8 -33 12 -40 7 -6 -4 -2
6 11 22 27 34 22 44 -11 22 -15 -10 -29 -12 -38 -7 -7 5 -25 7 -39 4 l-25 -5
23 17 c27 20 29 44 3 44 -10 0 -22 7 -25 16 -4 10 -12 14 -22 10 -10 -4 -14
-1 -11 6 2 7 10 12 16 10 6 -1 11 2 11 8 0 5 -4 10 -10 10 -5 0 -10 9 -10 20
0 14 -7 20 -22 20 -21 -1 -22 -2 -5 -14 22 -17 22 -26 -2 -26 -11 0 -23 9 -26
20 -3 11 -14 20 -24 20 -10 0 -25 8 -32 18 -13 16 -13 16 5 2 18 -14 19 -13
13 3 -7 20 13 23 31 5 6 -6 15 -9 19 -5 11 12 -6 21 -42 21 -27 0 -35 4 -35
18 0 10 7 18 18 18 16 1 16 1 -1 11 -12 7 -15 17 -11 35 6 24 -9 34 -21 13 -4
-6 -17 -14 -29 -19 -17 -7 -18 -9 -3 -9 15 -1 16 -4 7 -21 -6 -11 -15 -18 -20
-15 -5 3 -11 1 -15 -5 -10 -17 -25 -11 -25 10 0 11 5 20 10 20 6 0 10 9 10 20
0 13 -5 18 -15 14 -8 -4 -13 -10 -10 -14 8 -13 -26 -21 -40 -10 -8 6 -11 24
-8 45 5 37 -9 47 -25 18 -12 -21 -42 -26 -42 -7 0 18 -15 18 -33 -1 -13 -13
-17 -12 -31 10 -10 15 -12 26 -6 30 14 8 13 38 -1 33 -6 -2 -21 -28 -34 -57
l-22 -53 -6 44 c-3 24 -4 54 0 66 9 36 -5 25 -26 -20 -11 -24 -20 -35 -21 -25
0 10 -6 20 -14 23 -8 3 -12 12 -9 20 3 8 0 14 -5 14 -6 0 -13 -8 -15 -17 -4
-17 -5 -17 -6 0 -1 18 -21 24 -21 6 0 -6 -6 -9 -14 -6 -9 4 -16 -1 -19 -11 -2
-9 -2 2 1 26 3 34 0 46 -14 57 -27 20 -34 18 -34 -7 0 -13 -5 -40 -11 -61 -8
-32 -13 -36 -25 -26 -8 6 -13 19 -13 28 1 13 2 13 6 -2 2 -9 9 -15 14 -12 15
10 10 42 -7 49 -23 9 -36 7 -29 -4 3 -5 1 -18 -4 -27 -10 -16 -11 -16 -18 7
-7 21 -9 15 -14 -30 -5 -41 -6 -30 -5 43 0 53 -2 97 -5 97 -9 0 -27 -44 -35
-84 -3 -20 -11 -39 -16 -42 -6 -4 -8 3 -4 17 7 24 7 24 -8 -1 -9 -14 -15 -19
-16 -12 0 7 -4 10 -10 7 -9 -5 -8 15 5 78 3 15 1 16 -11 6 -8 -6 -14 -18 -14
-25 0 -17 -20 -19 -21 -1 -1 6 0 23 1 36 3 39 -17 14 -25 -31 -6 -40 -8 -41
-16 -19 l-9 24 -25 -29 c-27 -31 -28 -31 -42 10 -8 27 -10 28 -26 12 -19 -20
-21 -17 -33 49 l-7 40 -9 -44 c-20 -94 -62 -89 -73 9 -8 72 -20 78 -23 13 -1
-25 -4 -55 -8 -65 -3 -10 0 -18 6 -18 6 0 9 -4 5 -10 -3 -5 -12 -7 -20 -3 -11
4 -13 1 -8 -13 4 -12 3 -15 -5 -10 -7 4 -12 22 -12 39 -1 31 -35 86 -46 74 -3
-3 -8 -24 -11 -46 -4 -29 -10 -41 -22 -41 -14 0 -14 2 -1 10 10 6 11 10 3 10
-8 0 -13 14 -13 34 0 18 -7 39 -15 46 -8 7 -15 20 -15 29 0 27 -20 -9 -21 -39
0 -22 -1 -23 -8 -6 -7 18 -8 18 -14 -5 -4 -13 -7 -33 -7 -44 0 -11 -9 -28 -20
-38 -11 -9 -20 -12 -20 -7 0 6 -6 10 -14 10 -9 0 -13 13 -13 40 0 46 -10 62
-23 40 -8 -13 -10 -12 -10 3 0 10 -4 15 -10 12 -5 -3 -10 -31 -10 -61 0 -51
-1 -54 -20 -44 -16 9 -19 8 -13 -6 4 -12 2 -15 -8 -12 -8 2 -19 19 -25 36 -5
18 -13 29 -17 26 -4 -4 -7 2 -7 14 0 33 -17 35 -22 1 -3 -16 -1 -32 4 -35 5
-3 6 -10 2 -15 -15 -25 -23 8 -18 72 4 38 4 69 1 69 -3 0 -15 -34 -28 -75z
m721 -81 c0 -8 -5 -12 -10 -9 -6 4 -8 11 -5 16 9 14 15 11 15 -7z m-830 -35
c0 -6 -4 -7 -10 -4 -5 3 -10 11 -10 16 0 6 5 7 10 4 6 -3 10 -11 10 -16z
m1210 -45 c0 -2 -7 -4 -15 -4 -8 0 -15 4 -15 10 0 5 7 7 15 4 8 -4 15 -8 15
-10z m97 -26 c-3 -8 -6 -5 -6 6 -1 11 2 17 5 13 3 -3 4 -12 1 -19z m-1607 -22
c0 -2 -8 -10 -17 -17 -16 -13 -17 -12 -4 4 13 16 21 21 21 13z m1610 0 c0 -3
-4 -8 -10 -11 -5 -3 -10 -1 -10 4 0 6 5 11 10 11 6 0 10 -2 10 -4z m-1803 -68
c-3 -8 -6 -5 -6 6 -1 11 2 17 5 13 3 -3 4 -12 1 -19z m863 -10 c0 -36 -4 -35
-14 5 -4 16 -2 27 4 27 5 0 10 -14 10 -32z m423 -15 c-8 -65 -13 -67 -13 -5 0
29 4 52 10 52 6 0 7 -19 3 -47z m-406 15 c-3 -8 -6 -5 -6 6 -1 11 2 17 5 13 3
-3 4 -12 1 -19z m203 -20 c0 -5 -4 -8 -10 -8 -5 0 -10 10 -10 23 0 18 2 19 10
7 5 -8 10 -18 10 -22z m401 -19 l-10 -24 0 26 c-1 14 2 29 6 33 12 12 14 -9 4
-35z m-1031 -4 c0 -5 -5 -3 -10 5 -9 13 -10 13 -10 0 0 -13 -1 -13 -10 0 -6 9
-5 17 3 22 11 7 27 -8 27 -27z m-510 -8 c0 -5 -4 -5 -10 -2 -5 3 -10 14 -10
23 0 15 2 15 10 2 5 -8 10 -19 10 -23z m1299 -9 c1 -5 -3 -8 -9 -8 -5 0 -10
12 -9 28 0 24 1 25 9 7 5 -11 9 -23 9 -27z m148 10 c-3 -8 -6 -5 -6 6 -1 11 2
17 5 13 3 -3 4 -12 1 -19z m158 2 c-2 -27 -15 -38 -15 -13 0 16 8 33 15 33 1
0 1 -9 0 -20z m172 -12 c-3 -8 -6 -5 -6 6 -1 11 2 17 5 13 3 -3 4 -12 1 -19z
m-1377 -19 c0 -5 -4 -9 -10 -9 -5 0 -10 -12 -10 -27 0 -20 -3 -24 -11 -16 -7
7 -8 19 -4 30 5 10 7 24 6 30 -1 8 4 10 14 7 8 -3 15 -10 15 -15z m1440 17 c0
-11 -19 -15 -25 -6 -3 5 1 10 9 10 9 0 16 -2 16 -4z m430 -27 c0 -5 -4 -9 -10
-9 -5 0 -10 7 -10 16 0 8 5 12 10 9 6 -3 10 -10 10 -16z m-465 -51 c-7 -25
-10 -49 -7 -53 4 -4 1 -6 -7 -3 -21 6 -23 41 -3 56 9 7 16 15 15 17 -2 3 -3
15 -3 27 0 14 3 19 10 12 6 -6 4 -26 -5 -56z m-1505 8 c0 -12 -5 -7 -19 24
-11 24 -11 24 3 6 9 -11 16 -24 16 -30z m-57 -3 c13 -21 32 -53 41 -70 14 -29
14 -33 2 -33 -10 0 -13 6 -9 15 3 10 1 15 -7 13 -7 -2 -21 12 -31 30 -10 18
-26 44 -35 57 -15 23 -15 25 0 25 9 0 26 -17 39 -37z m904 15 c-3 -8 -6 -5 -6
6 -1 11 2 17 5 13 3 -3 4 -12 1 -19z m163 5 c0 -10 7 -27 15 -37 16 -21 20
-46 7 -46 -11 0 -29 32 -37 68 -4 21 -3 32 4 32 6 0 11 -8 11 -17z m137 -5
c-3 -8 -6 -5 -6 6 -1 11 2 17 5 13 3 -3 4 -12 1 -19z m153 13 c0 -6 -4 -13
-10 -16 -5 -3 -10 1 -10 9 0 9 5 16 10 16 6 0 10 -4 10 -9z m73 -11 c-3 -11
-7 -20 -9 -20 -2 0 -4 9 -4 20 0 11 4 20 9 20 5 0 7 -9 4 -20z m-1291 -43 c12
-3 22 1 25 10 4 11 15 0 34 -38 34 -65 38 -88 6 -37 -19 31 -24 34 -36 21 -10
-11 -16 -12 -25 -3 -8 8 -7 13 4 20 13 8 13 10 -2 10 -17 0 -49 36 -47 55 0 5
5 0 11 -12 6 -12 19 -24 30 -26z m1488 23 c0 -5 -4 -10 -10 -10 -5 0 -10 5
-10 10 0 6 5 10 10 10 6 0 10 -4 10 -10z m-1733 -90 c23 -50 39 -90 37 -90
-13 0 -91 90 -111 126 -25 46 -24 49 10 52 20 1 29 -10 64 -88z m1857 81 c3
-5 -1 -14 -8 -20 -12 -10 -13 -8 -9 8 6 23 9 25 17 12z m-2134 -56 c0 -3 -6
-5 -13 -5 -19 0 -36 20 -30 35 3 10 9 9 24 -6 10 -10 19 -21 19 -24z m94 10
c3 -9 0 -12 -9 -9 -7 3 -16 12 -19 19 -3 9 0 12 9 9 7 -3 16 -12 19 -19z m626
5 c6 -11 8 -20 6 -20 -3 0 -10 9 -16 20 -6 11 -8 20 -6 20 3 0 10 -9 16 -20z
m1060 -1 c0 -5 -4 -9 -10 -9 -5 0 -10 7 -10 16 0 8 5 12 10 9 6 -3 10 -10 10
-16z m-1962 -9 c7 -11 11 -20 9 -20 -2 0 -12 9 -22 20 -10 11 -14 20 -9 20 5
0 15 -9 22 -20z m350 2 c6 -18 -15 -14 -22 4 -4 10 -1 14 6 12 6 -2 14 -10 16
-16z m312 8 c0 -5 -5 -10 -11 -10 -5 0 -7 5 -4 10 3 6 8 10 11 10 2 0 4 -4 4
-10z m2051 1 c-8 -5 -20 -7 -28 -4 -21 8 -15 13 15 13 20 0 23 -3 13 -9z
m-611 -44 c0 -5 -7 -4 -15 3 -8 7 -15 20 -15 29 1 13 3 13 15 -3 8 -11 15 -24
15 -29z m-1260 23 c0 -5 -2 -10 -4 -10 -3 0 -8 5 -11 10 -3 6 -1 10 4 10 6 0
11 -4 11 -10z m1533 4 c7 -7 -30 -64 -41 -64 -4 0 -8 12 -9 27 -1 19 1 22 8
12 7 -11 10 -9 15 9 6 22 15 27 27 16z m-193 -14 c0 -5 -2 -10 -4 -10 -3 0 -8
5 -11 10 -3 6 -1 10 4 10 6 0 11 -4 11 -10z m-1795 -134 c39 -42 86 -77 94
-72 4 3 12 -4 19 -15 9 -13 9 -19 1 -19 -19 0 -73 34 -92 58 -10 12 -22 20
-26 17 -10 -6 -75 74 -67 82 3 3 -4 14 -15 24 -15 13 -19 24 -14 40 7 20 10
18 39 -31 17 -29 45 -67 61 -84z m5 80 c0 -5 -7 -3 -15 4 -8 7 -15 20 -15 28
0 13 3 12 15 -4 8 -10 15 -23 15 -28z m358 19 c-3 -3 -9 2 -12 12 -6 14 -5 15
5 6 7 -7 10 -15 7 -18z m1962 4 c0 -5 -4 -9 -10 -9 -5 0 -10 5 -10 11 0 5 -5
7 -12 3 -7 -4 -8 -3 -4 4 7 12 36 5 36 -9z m50 11 c0 -5 -4 -10 -10 -10 -5 0
-10 5 -10 10 0 6 5 10 10 10 6 0 10 -4 10 -10z m-230 -10 c0 -5 -5 -10 -11
-10 -5 0 -7 5 -4 10 3 6 8 10 11 10 2 0 4 -4 4 -10z m-2307 -62 c-2 -5 1 -8 7
-8 7 0 10 -7 7 -14 -4 -9 2 -17 14 -21 10 -4 23 -14 29 -24 7 -15 6 -18 -9
-17 -20 1 -36 16 -69 63 -19 27 -21 35 -10 59 l12 27 12 -29 c7 -16 10 -32 7
-36z m2087 58 c0 -3 -4 -8 -10 -11 -5 -3 -10 -1 -10 4 0 6 5 11 10 11 6 0 10
-2 10 -4z m-230 -16 c0 -5 -2 -10 -4 -10 -3 0 -8 5 -11 10 -3 6 -1 10 4 10 6
0 11 -4 11 -10z m370 -25 c-6 -15 -13 -25 -16 -23 -2 3 1 17 7 32 7 14 14 24
16 22 2 -2 -1 -16 -7 -31z m-2275 15 c3 -5 1 -10 -4 -10 -6 0 -11 5 -11 10 0
6 2 10 4 10 3 0 8 -4 11 -10z m2360 0 c3 -5 1 -10 -4 -10 -6 0 -11 5 -11 10 0
6 2 10 4 10 3 0 8 -4 11 -10z m-41 -38 c-4 -12 -9 -20 -13 -18 -3 2 -6 -14 -5
-36 0 -32 -5 -43 -30 -63 -17 -13 -32 -23 -34 -21 -10 11 -8 47 4 57 10 8 14
8 14 0 0 -6 -5 -11 -12 -11 -6 0 -8 -3 -5 -6 4 -4 13 -1 22 6 12 10 13 15 3
28 -10 12 -10 16 0 19 6 3 12 11 12 18 0 8 9 19 21 25 13 8 18 17 14 28 -4 12
-3 14 4 7 6 -6 8 -20 5 -33z m-1944 3 c13 -14 21 -25 18 -25 -2 0 -15 11 -28
25 -13 14 -21 25 -18 25 2 0 15 -11 28 -25z m-145 5 c-2 -4 5 -16 15 -28 31
-33 23 -39 -10 -7 -33 32 -37 42 -15 42 8 0 12 -3 10 -7z m1675 0 c0 -5 -2
-10 -4 -10 -3 0 -8 5 -11 10 -3 6 -1 10 4 10 6 0 11 -4 11 -10z m192 -2 c-7
-7 -8 -17 -1 -29 8 -15 6 -17 -8 -12 -10 3 -15 3 -11 -2 8 -9 -15 -35 -31 -35
-6 0 -11 5 -11 10 0 6 5 10 11 10 5 0 7 5 4 10 -3 6 -1 10 4 10 6 0 11 6 11
13 0 15 20 37 34 37 6 0 5 -5 -2 -12z m266 -17 c11 -6 10 -11 -4 -25 -13 -13
-19 -14 -25 -5 -8 13 -1 39 10 39 3 0 12 -4 19 -9z m-2053 -21 c10 -11 13 -20
7 -20 -6 0 -16 9 -22 20 -6 11 -9 20 -7 20 2 0 12 -9 22 -20z m2134 -27 c-18
-21 -34 -39 -35 -41 -1 -1 -7 5 -14 13 -7 9 -9 15 -4 14 25 -4 36 2 31 20 -5
19 2 23 47 30 6 0 -6 -16 -25 -36z m-2014 9 c-3 -3 -11 0 -18 7 -9 10 -8 11 6
5 10 -3 15 -9 12 -12z m2075 -6 c0 -3 -4 -8 -10 -11 -5 -3 -10 -1 -10 4 0 6 5
11 10 11 6 0 10 -2 10 -4z m153 -3 c-7 -2 -21 -2 -30 0 -10 3 -4 5 12 5 17 0
24 -2 18 -5z m-333 -13 c0 -5 -4 -10 -10 -10 -5 0 -10 5 -10 10 0 6 5 10 10
10 6 0 10 -4 10 -10z m222 -55 c-2 -14 -9 -25 -14 -25 -6 0 -8 7 -5 14 4 10 1
13 -9 9 -7 -3 -14 0 -14 6 0 6 7 11 16 11 11 0 14 6 9 23 -6 20 -5 21 8 4 8
-9 12 -28 9 -42z m-2397 15 c10 -11 14 -20 8 -20 -5 0 -18 9 -28 20 -10 11
-14 20 -8 20 5 0 18 -9 28 -20z m226 -6 c23 -25 23 -26 2 -13 -13 7 -25 19
-27 26 -8 19 -2 16 25 -13z m1699 -24 c-17 -22 -33 -40 -35 -40 -9 0 3 34 13
38 7 2 12 10 12 17 0 12 14 22 33 24 5 1 -6 -17 -23 -39z m261 -21 c-36 -37
-41 -29 -9 17 13 19 27 29 31 25 5 -5 -5 -23 -22 -42z m239 31 c0 -5 -4 -10
-10 -10 -5 0 -10 5 -10 10 0 6 5 10 10 10 6 0 10 -4 10 -10z m-3075 -20 c3 -5
1 -10 -4 -10 -6 0 -11 5 -11 10 0 6 2 10 4 10 3 0 8 -4 11 -10z m330 -8 c-3
-3 -11 0 -18 7 -9 10 -8 11 6 5 10 -3 15 -9 12 -12z m2372 3 c0 -8 -4 -12 -9
-9 -5 3 -6 10 -3 15 9 13 12 11 12 -6z m303 -5 c0 -13 -66 -80 -79 -80 -6 0
-11 -4 -11 -10 0 -12 -40 -34 -47 -26 -3 3 0 12 6 20 10 11 8 17 -6 26 -16 10
-15 10 5 5 14 -4 22 -2 22 5 0 7 8 10 19 7 10 -2 18 1 18 7 -1 32 5 44 26 53
23 11 47 7 47 -7z m101 -2 c23 -26 24 -41 4 -58 -17 -14 -17 -15 -19 24 0 16
-7 31 -15 34 -8 3 -11 0 -7 -6 3 -6 2 -13 -3 -16 -19 -12 -24 17 -6 31 24 17
24 17 46 -9z m-478 -29 c-8 -8 -13 -7 -18 2 -5 8 -4 10 3 5 7 -4 12 -2 12 5 0
7 3 9 7 6 4 -4 2 -12 -4 -18z m113 -14 c-19 -28 -36 -33 -36 -9 0 8 4 13 9 9
6 -3 15 4 21 16 7 11 14 18 17 15 3 -3 -2 -17 -11 -31z m-2361 -5 c10 -11 16
-20 13 -20 -3 0 -13 9 -23 20 -10 11 -16 20 -13 20 3 0 13 -9 23 -20z m2700
10 c-3 -5 -12 -10 -18 -10 -7 0 -6 4 3 10 19 12 23 12 15 0z m-71 -22 c-5 -8
-2 -9 9 -5 27 10 20 -9 -10 -29 -20 -13 -25 -13 -16 -2 7 8 10 18 7 21 -6 6 3
27 12 27 3 0 2 -5 -2 -12z m151 1 c7 -11 -39 -59 -56 -59 -6 0 -9 3 -7 8 32
64 47 77 63 51z m30 -50 c-4 -5 -1 -9 4 -9 6 0 11 -6 11 -14 0 -8 4 -16 9 -18
9 -3 81 -95 81 -104 0 -2 9 -14 20 -26 39 -43 11 -67 -45 -38 -40 21 -52 33
-47 48 2 6 -1 12 -8 12 -6 0 -8 5 -5 10 3 6 -1 10 -9 10 -11 0 -14 8 -11 30 3
28 2 29 -17 19 -19 -10 -20 -9 -15 10 3 12 1 19 -3 16 -5 -3 -13 2 -18 12 -8
13 -4 23 15 40 23 22 50 23 38 2z m-215 -5 c0 -8 -4 -12 -10 -9 -5 3 -10 10
-10 16 0 5 5 9 10 9 6 0 10 -7 10 -16z m81 -8 c-10 -12 -8 -13 8 -9 31 8 25
-4 -10 -23 -17 -8 -34 -12 -38 -7 -3 4 -5 7 -2 6 2 -1 12 9 23 22 11 14 22 25
25 25 3 0 0 -6 -6 -14z m209 4 c0 -5 -4 -10 -10 -10 -5 0 -10 5 -10 10 0 6 5
10 10 10 6 0 10 -4 10 -10z m-430 -4 c0 -3 -4 -8 -10 -11 -5 -3 -10 -1 -10 4
0 6 5 11 10 11 6 0 10 -2 10 -4z m110 -16 c0 -5 -2 -10 -4 -10 -3 0 -8 5 -11
10 -3 6 -1 10 4 10 6 0 11 -4 11 -10z m-53 -42 c-3 -8 -6 -5 -6 6 -1 11 2 17
5 13 3 -3 4 -12 1 -19z m106 -2 c3 -8 -1 -17 -9 -20 -9 -4 -14 1 -14 14 0 23
15 27 23 6z m92 4 c3 -6 -1 -7 -9 -4 -18 7 -21 14 -7 14 6 0 13 -4 16 -10z
m-131 -26 c4 -9 4 -19 1 -22 -3 -3 -5 0 -5 6 0 7 -7 12 -16 12 -8 0 -12 5 -9
10 9 15 22 12 29 -6z m-2894 -30 c0 -2 -9 0 -20 6 -11 6 -20 13 -20 16 0 2 9
0 20 -6 11 -6 20 -13 20 -16z m2850 16 c0 -5 -5 -10 -11 -10 -5 0 -7 5 -4 10
3 6 8 10 11 10 2 0 4 -4 4 -10z m130 0 c0 -9 -15 -14 -33 -11 -5 1 -6 -3 -3
-8 5 -8 -50 -41 -68 -41 -13 0 29 37 59 53 35 19 45 21 45 7z m78 -4 c-7 -8
-17 -12 -22 -9 -4 3 -2 9 5 14 22 13 31 11 17 -5z m-2888 -12 c0 -2 -7 -4 -15
-4 -8 0 -15 4 -15 10 0 5 7 7 15 4 8 -4 15 -8 15 -10z m1620 -4 c0 -5 -4 -10
-9 -10 -6 0 -13 5 -16 10 -3 6 1 10 9 10 9 0 16 -4 16 -10z m1215 -10 c-10
-11 -24 -20 -32 -20 -7 0 -13 -4 -13 -10 0 -5 -3 -9 -7 -9 -20 3 -26 -2 -13
-11 11 -7 5 -10 -23 -10 -25 0 -36 -4 -32 -11 5 -7 -4 -9 -26 -7 -18 2 -34 8
-36 15 -3 7 3 9 17 6 22 -6 110 33 110 49 0 4 9 8 20 8 11 0 20 5 20 10 0 6 7
10 17 10 14 0 14 -2 -2 -20z m-1041 1 c3 -5 -1 -12 -10 -15 -20 -8 -29 -1 -19
13 8 13 22 14 29 2z m875 -17 c14 -12 -19 -1 -35 12 -18 14 -18 14 6 3 14 -6
27 -13 29 -15z m-2729 -10 c0 -9 -28 -3 -46 11 -17 13 -16 14 14 4 17 -6 32
-13 32 -15z m1635 16 c4 -6 -5 -10 -19 -10 -14 0 -26 5 -26 10 0 6 9 10 19 10
11 0 23 -4 26 -10z m1298 -22 c-2 -5 2 -8 9 -8 28 0 -29 -39 -67 -45 l-40 -7
30 26 c17 14 33 25 38 26 4 0 7 9 7 20 0 17 2 19 14 8 8 -7 12 -16 9 -20z m66
-4 c-13 -16 -29 -18 -29 -4 0 6 7 10 16 10 9 0 12 5 8 12 -4 7 -3 8 5 4 9 -6
9 -11 0 -22z m-2889 -14 c29 -12 38 -19 24 -19 -24 -1 -85 18 -98 30 -17 15
27 9 74 -11z m1624 8 c-3 -4 -9 -8 -15 -8 -5 0 -9 4 -9 8 0 5 7 9 15 9 8 0 12
-4 9 -9z m61 -15 c-4 -16 -8 -53 -10 -83 -3 -62 -27 -90 -76 -90 -22 0 -30 6
-34 23 -4 13 -5 30 -3 38 2 9 -4 13 -18 11 -28 -4 -38 24 -16 40 20 15 23 49
5 55 -8 3 -13 -4 -13 -17 0 -12 -4 -18 -10 -15 -18 11 -11 31 15 45 20 11 30
11 48 1 25 -13 52 -11 82 7 31 18 38 14 30 -15z m1245 -1 c0 -4 -10 -9 -22 -9
-18 -2 -20 0 -8 7 18 12 30 13 30 2z m-1467 -8 c3 -3 3 -12 0 -19 -6 -17 -33
-8 -33 11 0 14 21 19 33 8z m1411 -45 c-3 -6 -15 -8 -26 -6 -16 4 -17 3 -7 -9
16 -19 -14 -30 -44 -16 l-22 11 24 0 c13 1 21 4 17 8 -3 4 4 13 16 20 13 7 17
12 9 13 -11 0 -11 3 -1 15 11 14 14 13 27 -5 8 -11 11 -25 7 -31z m-287 35
c-3 -3 -12 -4 -19 -1 -8 3 -5 6 6 6 11 1 17 -2 13 -5z m170 -40 c-3 -3 -12 -4
-19 -1 -8 3 -5 6 6 6 11 1 17 -2 13 -5z m-63 -15 c-4 -7 -44 0 -44 7 0 2 11 3
24 2 14 -1 23 -5 20 -9z m223 -6 c2 -6 -16 -23 -41 -38 -25 -15 -46 -33 -46
-41 0 -11 -4 -12 -19 -5 -15 9 -20 7 -24 -10 -3 -12 -11 -19 -18 -17 -23 8
-21 28 4 37 13 5 30 15 38 23 33 31 85 68 93 65 6 -2 11 -8 13 -14z m-3107 -8
c19 -7 28 -13 20 -13 -8 0 -31 6 -50 13 -19 7 -28 13 -20 13 8 0 31 -6 50 -13z
m2946 -21 c-5 -14 -4 -15 9 -4 9 7 18 10 22 6 19 -19 -52 -30 -73 -11 -9 7 -5
12 15 16 14 4 28 7 30 8 2 0 0 -6 -3 -15z m184 -10 c0 -8 -7 -14 -15 -14 -15
0 -21 21 -9 33 10 9 24 -2 24 -19z m-2983 0 c-3 -3 -12 -4 -19 -1 -8 3 -5 6 6
6 11 1 17 -2 13 -5z m2939 -39 c-22 -17 -56 -20 -56 -6 0 12 19 19 50 20 24 0
24 0 6 -14z m184 -14 c0 -5 -7 -14 -15 -21 -12 -10 -15 -10 -15 2 0 8 3 18 7
21 9 10 23 9 23 -2z m-250 -21 c12 -8 9 -10 -13 -10 -16 0 -26 4 -22 10 8 12
16 12 35 0z m-2717 -7 c-7 -2 -19 -2 -25 0 -7 3 -2 5 12 5 14 0 19 -2 13 -5z
m34 -39 c-3 -3 -12 -4 -19 -1 -8 3 -5 6 6 6 11 1 17 -2 13 -5z m-330 -20 c-3
-3 -12 -4 -19 -1 -8 3 -5 6 6 6 11 1 17 -2 13 -5z m116 -11 c-7 -2 -21 -2 -30
0 -10 3 -4 5 12 5 17 0 24 -2 18 -5z m100 -10 c-7 -2 -21 -2 -30 0 -10 3 -4 5
12 5 17 0 24 -2 18 -5z m-60 -150 c-7 -2 -21 -2 -30 0 -10 3 -4 5 12 5 17 0
24 -2 18 -5z m177 -3 c0 -5 -5 -10 -11 -10 -5 0 -7 5 -4 10 3 6 8 10 11 10 2
0 4 -4 4 -10z m1738 -95 c-2 -23 -18 -37 -18 -16 0 5 -3 16 -6 25 -4 11 -1 16
10 16 11 0 15 -8 14 -25z m-1493 9 c13 -5 14 -8 3 -15 -19 -12 -25 -11 -25 6
0 17 0 17 22 9z m1455 -3 c0 -5 3 -16 6 -25 3 -9 2 -16 -4 -16 -5 0 -12 11
-14 25 -3 14 -1 25 3 25 5 0 9 -4 9 -9z m-1323 -17 c-3 -3 -12 -4 -19 -1 -8 3
-5 6 6 6 11 1 17 -2 13 -5z m-57 -24 c20 -7 17 -8 -20 -8 -25 1 -59 -6 -77
-15 -20 -11 -34 -13 -38 -7 -3 6 0 10 8 10 8 0 28 7 43 15 32 16 46 17 84 5z
m83 -27 c-7 -2 -21 -2 -30 0 -10 3 -4 5 12 5 17 0 24 -2 18 -5z m2368 -69
c-13 -23 -21 -31 -21 -21 0 17 31 68 38 62 2 -2 -6 -20 -17 -41z m-2301 17 c0
-10 -78 -31 -112 -30 -21 1 -20 2 7 15 17 7 40 11 52 9 12 -3 25 -1 28 5 8 12
25 13 25 1z m38 -38 c-10 -2 -26 -2 -35 0 -10 3 -2 5 17 5 19 0 27 -2 18 -5z
m2432 3 c0 -3 -4 -8 -10 -11 -5 -3 -10 -1 -10 4 0 6 5 11 10 11 6 0 10 -2 10
-4z m-162 -71 c-11 -11 -46 18 -41 33 5 11 10 9 26 -7 12 -11 18 -23 15 -26z
m142 35 c0 -12 -28 -25 -36 -17 -9 9 6 27 22 27 8 0 14 -5 14 -10z"/>
<path d="M2570 5320 c0 -5 5 -10 11 -10 5 0 7 5 4 10 -3 6 -8 10 -11 10 -2 0
-4 -4 -4 -10z"/>
<path d="M5287 4901 c-4 -17 -3 -21 5 -13 5 5 8 16 6 23 -3 8 -7 3 -11 -10z"/>
<path d="M5310 4860 c-13 -8 -12 -10 3 -10 9 0 17 5 17 10 0 12 -1 12 -20 0z"/>
<path d="M3721 5954 c0 -11 3 -14 6 -6 3 7 2 16 -1 19 -3 4 -6 -2 -5 -13z"/>
<path d="M6521 5904 c0 -11 3 -14 6 -6 3 7 2 16 -1 19 -3 4 -6 -2 -5 -13z"/>
<path d="M3441 5864 c0 -11 3 -14 6 -6 3 7 2 16 -1 19 -3 4 -6 -2 -5 -13z"/>
<path d="M5110 5480 c0 -5 5 -10 10 -10 6 0 10 5 10 10 0 6 -4 10 -10 10 -5 0
-10 -4 -10 -10z"/>
<path d="M5195 5381 c-3 -5 -1 -12 5 -16 5 -3 10 1 10 9 0 18 -6 21 -15 7z"/>
<path d="M2311 5239 c26 -24 62 -52 80 -62 33 -18 33 -18 11 0 -13 10 -40 32
-60 48 -63 52 -79 59 -31 14z"/>
<path d="M2140 5263 c0 -14 71 -97 111 -131 50 -41 64 -35 17 7 -26 23 -65 63
-88 89 -22 26 -40 42 -40 35z"/>
<path d="M5330 5106 c0 -9 30 -14 35 -6 4 6 -3 10 -14 10 -12 0 -21 -2 -21 -4z"/>
<path d="M1775 5011 c61 -66 159 -124 277 -164 122 -42 125 -43 104 -22 -8 8
-19 15 -23 15 -5 0 -29 10 -54 22 -24 12 -46 22 -49 23 -53 9 -132 50 -195
100 -22 17 -53 40 -70 50 -27 17 -27 15 10 -24z"/>
<path d="M5344 5025 c8 -8 18 -15 22 -15 3 0 1 7 -6 15 -7 8 -17 15 -22 15 -5
0 -3 -7 6 -15z"/>
<path d="M0 4213 c0 -708 2 -812 15 -823 8 -7 15 -18 15 -25 0 -25 32 -75 48
-76 14 0 13 -2 -3 -9 -20 -9 -7 -15 23 -11 18 3 15 -26 -4 -37 -14 -8 -12 -10
10 -16 17 -4 26 -13 26 -26 0 -24 21 -70 32 -70 4 0 8 -7 8 -16 0 -8 4 -12 10
-9 5 3 10 17 10 30 0 13 7 30 15 39 18 18 19 33 3 38 -10 4 -10 10 -1 29 8 17
12 19 12 7 1 -21 30 -50 42 -42 5 3 6 11 2 17 -4 7 -11 46 -15 87 -5 41 -12
108 -16 148 -5 53 -4 72 5 72 6 0 15 -9 18 -21 14 -44 24 1 29 136 9 210 16
279 29 287 8 5 5 16 -12 39 -16 21 -20 34 -13 37 18 6 15 82 -2 82 -18 0 -40
-97 -30 -134 5 -20 2 -26 -10 -26 -11 0 -16 9 -16 33 0 17 -5 52 -11 76 -6 30
-7 46 0 51 16 9 11 122 -6 148 -9 15 -14 42 -12 75 4 79 0 117 -12 117 -6 0
-13 -9 -16 -20 -6 -23 -18 -26 -29 -8 -10 17 -5 82 7 86 5 2 9 21 9 42 0 30
-4 39 -21 43 -18 5 -21 12 -17 42 3 28 1 34 -10 30 -12 -4 -14 5 -10 50 5 55
4 56 -21 53 -32 -4 -36 17 -18 85 12 49 12 49 -21 84 -26 28 -33 43 -30 69 1
18 -1 36 -5 40 -4 4 -7 -357 -7 -803z m200 -940 c0 -19 -3 -24 -10 -17 -6 6
-8 18 -4 27 9 24 14 21 14 -10z"/>
<path d="M5445 4820 c-3 -5 -1 -10 4 -10 6 0 11 5 11 10 0 6 -2 10 -4 10 -3 0
-8 -4 -11 -10z"/>
<path d="M1951 4764 c15 -18 102 -64 121 -64 7 0 -10 12 -37 26 -28 15 -57 33
-66 40 -21 19 -34 18 -18 -2z"/>
<path d="M5480 4692 c0 -5 7 -15 15 -22 8 -7 15 -21 15 -31 0 -11 6 -19 14
-19 8 0 13 6 12 13 -4 27 -56 82 -56 59z"/>
<path d="M2094 4675 c11 -8 29 -15 40 -15 28 0 8 16 -29 24 -28 6 -29 5 -11
-9z"/>
<path d="M5250 4642 c0 -5 7 -13 16 -16 10 -4 14 -1 12 6 -5 15 -28 23 -28 10z"/>
<path d="M5330 4605 c0 -8 -7 -15 -15 -15 -9 0 -12 -6 -9 -15 4 -10 0 -15 -15
-15 -12 0 -21 -4 -21 -8 0 -5 13 -9 30 -9 16 0 26 5 23 10 -8 13 17 27 47 27
22 0 25 -5 26 -33 0 -18 4 -41 7 -52 7 -17 8 -17 22 1 18 24 19 48 2 41 -10
-4 -13 5 -13 32 1 35 0 36 -31 33 -20 -3 -33 0 -33 7 0 6 -4 11 -10 11 -5 0
-10 -7 -10 -15z"/>
<path d="M5536 4575 c4 -8 13 -15 21 -15 13 0 13 3 3 15 -7 8 -16 15 -21 15
-5 0 -6 -7 -3 -15z"/>
<path d="M5496 4553 c6 -4 14 -15 17 -23 5 -11 6 -9 4 4 -1 11 -9 21 -17 23
-10 3 -11 2 -4 -4z"/>
<path d="M5325 4520 c-8 -12 17 -23 41 -18 10 1 19 9 22 16 5 15 -54 17 -63 2z"/>
<path d="M5570 4515 c7 -9 15 -13 17 -11 7 7 -7 26 -19 26 -6 0 -6 -6 2 -15z"/>
<path d="M5470 4495 c10 -12 10 -15 0 -15 -8 0 -11 -3 -7 -6 3 -3 10 -3 16 0
12 8 3 36 -11 36 -6 0 -5 -6 2 -15z"/>
<path d="M5365 4479 c-4 -6 -5 -12 -2 -15 2 -3 7 2 10 11 7 17 1 20 -8 4z"/>
<path d="M5427 4453 c-11 -10 -8 -20 7 -26 8 -3 16 2 19 14 5 18 -12 27 -26
12z"/>
<path d="M1800 4440 c8 -5 22 -9 30 -9 10 0 8 3 -5 9 -27 12 -43 12 -25 0z"/>
<path d="M1858 4423 c7 -3 16 -2 19 1 4 3 -2 6 -13 5 -11 0 -14 -3 -6 -6z"/>
<path d="M1910 4411 c14 -5 48 -11 75 -14 l50 -6 -50 14 c-27 7 -61 13 -75 13
l-25 0 25 -7z"/>
<path d="M3087 4134 c-3 -4 -28 -10 -54 -15 -149 -28 -338 -188 -392 -335 -29
-76 -25 -79 11 -9 17 33 45 78 62 100 40 51 126 131 137 128 5 -2 9 1 9 6 0 5
8 11 18 15 9 3 22 8 28 11 6 3 -25 -32 -70 -78 -44 -46 -98 -113 -119 -148
-21 -35 -30 -54 -20 -41 101 131 145 181 195 223 58 48 60 49 129 49 l70 0
-65 -66 c-83 -83 -87 -100 -6 -22 59 57 74 66 83 51 2 -5 2 -2 1 4 -5 21 53
46 77 33 11 -6 30 -9 42 -7 22 4 22 4 -1 6 -13 0 -20 6 -17 11 3 6 -3 10 -14
10 -11 0 -22 9 -26 20 -4 13 -19 23 -36 27 -20 4 -28 10 -25 19 5 14 -6 19
-17 8z m5 -49 c28 -2 34 -15 7 -16 -22 0 -22 -1 -4 -8 11 -5 27 -6 35 -4 13 4
13 4 0 -6 -8 -5 -25 -8 -37 -6 -13 3 -34 7 -48 10 -16 4 -22 10 -19 20 8 19
-5 19 -30 0 -20 -15 -76 -22 -62 -7 17 17 73 30 106 24 19 -3 43 -6 52 -7z"/>
<path d="M3169 4007 c-17 -4 -36 -12 -43 -17 -6 -6 -33 -27 -61 -48 -27 -21
-66 -59 -86 -83 -40 -49 -103 -161 -113 -199 -4 -14 10 8 31 48 41 79 108 160
174 213 40 31 41 32 34 8 -4 -13 -15 -29 -24 -36 -9 -7 -12 -13 -8 -13 5 0 -2
-13 -16 -29 -38 -45 -114 -209 -131 -281 -24 -100 -18 -104 13 -10 30 92 59
155 68 146 3 -3 -1 -16 -9 -28 -14 -23 -43 -96 -33 -87 2 3 19 32 36 65 31 58
101 153 115 157 4 1 20 13 34 27 65 60 79 70 99 70 12 0 20 4 17 9 -3 5 1 12
10 15 9 4 13 2 8 -5 -4 -8 3 -9 25 -4 52 11 35 -2 -36 -26 -46 -17 -82 -38
-113 -67 -25 -24 -47 -44 -50 -45 -3 -1 -3 -6 -2 -12 2 -5 0 -7 -4 -3 -14 14
-138 -200 -158 -272 -4 -14 11 9 32 51 22 42 51 94 65 115 31 48 159 174 132
129 -34 -56 -42 -65 -50 -57 -5 4 -5 1 -1 -5 4 -7 2 -22 -4 -33 -19 -36 -5
-22 49 50 46 60 161 170 136 130 -8 -13 -6 -13 15 0 14 8 39 15 56 15 36 -1
41 23 8 36 -15 6 -11 8 14 8 21 1 31 5 27 12 -4 6 -13 8 -20 5 -8 -3 -19 2
-26 10 -7 8 -18 13 -25 10 -7 -3 -16 -1 -20 5 -4 6 -11 6 -20 -2 -11 -9 -14
-8 -14 3 0 11 -9 13 -32 10 -29 -4 -31 -3 -20 11 12 15 10 16 -17 14 -17 -1
-44 -6 -62 -10z m-9 -47 c0 -6 11 -8 28 -4 l27 7 -27 -22 c-32 -25 -39 -27
-31 -4 5 12 2 15 -10 10 -11 -4 -14 -2 -10 9 6 16 23 19 23 4z m205 0 c-3 -5
-21 -9 -38 -9 l-32 2 35 7 c19 4 36 8 38 9 2 0 0 -3 -3 -9z m-213 -85 c-11 -9
-28 -22 -37 -31 -8 -8 -15 -12 -15 -7 0 10 63 63 69 57 3 -2 -5 -11 -17 -19z
m78 -29 c0 -2 -7 -7 -16 -10 -8 -3 -12 -2 -9 4 6 10 25 14 25 6z m-140 -23
c-1 -5 -15 -24 -32 -43 -31 -36 -30 -27 4 23 19 27 28 34 28 20z"/>
<path d="M3540 3890 c0 -5 7 -10 15 -10 8 0 15 5 15 10 0 6 -7 10 -15 10 -8 0
-15 -4 -15 -10z"/>
<path d="M3420 3875 c0 -12 5 -13 18 -7 9 5 24 12 32 15 8 3 0 6 -17 6 -23 1
-33 -4 -33 -14z"/>
<path d="M3510 3872 c0 -6 -10 -14 -22 -18 -41 -13 -79 -48 -123 -114 -49 -75
-109 -190 -101 -197 2 -2 14 17 25 43 36 80 31 45 -11 -79 -21 -65 -38 -126
-36 -135 2 -9 12 15 23 53 35 130 85 235 137 289 27 28 48 53 47 56 -3 7 44
30 50 24 2 -2 -2 -10 -10 -17 -40 -33 -100 -136 -139 -238 -31 -84 -23 -82 14
3 84 194 158 278 253 293 28 4 32 3 17 -4 -47 -21 -102 -177 -118 -336 l-5
-50 13 45 c8 25 19 72 26 105 15 66 61 178 79 189 14 9 14 -14 1 -50 -6 -15
-12 -39 -14 -53 -2 -14 -15 -57 -29 -96 -35 -95 -51 -194 -43 -273 3 -37 6
-71 7 -77 1 -22 18 32 18 63 1 19 7 35 16 38 8 4 15 12 15 19 0 17 47 161 67
205 38 85 59 123 70 127 7 3 13 11 13 17 0 13 53 56 68 56 5 0 0 -26 -11 -57
-16 -48 -18 -73 -12 -143 7 -89 17 -150 37 -212 20 -67 25 -40 6 35 l-18 72
26 100 c15 55 28 109 31 120 6 28 40 71 49 63 9 -10 12 -40 21 -198 5 -87 9
-121 13 -95 3 22 4 58 3 80 -2 22 -5 85 -8 140 -4 55 -7 105 -7 112 -1 8 -20
10 -62 7 -92 -6 -99 -6 -105 5 -4 6 -12 6 -21 1 -11 -7 -12 -10 -2 -10 8 0 -1
-18 -21 -42 -46 -57 -79 -131 -117 -269 -38 -132 -41 -139 -50 -113 -16 42 56
296 100 356 11 15 20 31 20 35 0 4 14 23 31 41 41 44 27 56 -86 68 -49 6 -98
14 -107 18 -11 5 -18 4 -18 -2z m34 -48 c-41 -28 -44 -29 -44 -9 0 17 21 30
54 31 24 2 24 1 -10 -22z m160 5 c-6 -11 -31 -12 -37 -1 -3 4 6 8 19 8 13 1
21 -2 18 -7z m-29 -29 c-3 -5 -11 -10 -16 -10 -6 0 -7 5 -4 10 3 6 11 10 16
10 6 0 7 -4 4 -10z m20 -20 c-10 -11 -20 -18 -23 -15 -3 3 3 14 13 25 10 11
20 18 23 15 3 -3 -3 -14 -13 -25z m195 -18 c0 -4 -8 -24 -19 -44 -10 -21 -24
-73 -31 -118 -7 -44 -16 -83 -21 -86 -14 -9 -8 127 8 179 15 47 36 77 54 77 5
0 9 -4 9 -8z"/>
<path d="M5040 3850 c0 -5 7 -10 16 -10 8 0 12 5 9 10 -3 6 -10 10 -16 10 -5
0 -9 -4 -9 -10z"/>
<path d="M4820 3830 c0 -13 11 -13 30 0 12 8 11 10 -7 10 -13 0 -23 -4 -23
-10z"/>
<path d="M4870 3834 c0 -12 11 -26 35 -44 15 -11 14 -7 -5 15 -14 17 -26 32
-27 34 -2 2 -3 0 -3 -5z"/>
<path d="M4920 3836 c0 -2 7 -7 16 -10 8 -3 12 -2 9 4 -6 10 -25 14 -25 6z"/>
<path d="M3844 3820 c-37 -14 -38 -30 -2 -18 40 13 42 15 31 21 -4 2 -18 1
-29 -3z"/>
<path d="M4477 3810 c-8 -12 -24 -22 -35 -23 -25 -1 -18 -17 7 -17 9 0 26 -7
37 -15 19 -14 19 -14 0 -15 -17 0 -18 -2 -4 -17 9 -10 28 -49 43 -88 15 -38
32 -75 37 -82 6 -7 4 -13 -4 -16 -9 -4 -9 -6 2 -6 12 -1 70 -88 70 -106 0 -3
-11 -5 -24 -5 -14 0 -31 -7 -40 -15 -8 -8 -19 -15 -25 -15 -6 0 -11 -4 -11
-10 0 -5 -7 -10 -17 -10 -9 0 -14 -3 -10 -6 7 -8 75 14 79 26 2 5 24 11 50 13
26 2 58 11 72 21 14 9 32 16 41 16 25 0 85 28 85 39 0 6 -7 11 -15 11 -8 0
-14 -3 -13 -7 2 -5 0 -8 -3 -8 -3 0 -13 -6 -22 -13 -21 -17 -40 -6 -32 19 7
20 -5 23 -39 10 -14 -5 -16 -10 -8 -15 7 -4 12 -12 12 -17 0 -18 -19 1 -36 36
-16 34 -16 35 13 59 16 15 35 23 45 20 13 -4 16 -1 12 9 -2 7 2 19 9 26 12 9
21 4 46 -28 17 -21 30 -45 28 -53 -2 -7 -2 -9 1 -4 2 4 28 -18 57 -49 l53 -58
-3 42 c-1 23 -5 44 -9 48 -3 3 2 15 11 26 17 19 17 20 0 14 -14 -5 -22 2 -37
36 -19 43 -17 87 3 87 6 0 8 3 5 6 -4 3 -16 1 -27 -5 -18 -10 -20 -9 -14 6 3
10 3 15 0 12 -4 -3 -34 21 -67 53 -33 32 -60 55 -60 53 0 -3 -11 2 -24 11 -24
15 -25 15 -23 -5 1 -14 8 -21 23 -21 21 0 102 -74 104 -95 1 -5 8 -17 15 -25
19 -21 86 -182 78 -189 -3 -3 -8 0 -10 7 -3 7 -25 37 -49 67 -24 29 -44 56
-44 59 0 2 8 7 18 9 15 4 15 5 -1 6 -10 0 -52 35 -93 76 -41 41 -81 75 -89 75
-18 0 -20 -20 -2 -20 13 -1 41 -23 72 -58 16 -20 17 -25 5 -33 -12 -8 -10 -9
6 -4 15 4 24 0 28 -10 6 -17 -60 -83 -77 -77 -6 2 -13 -2 -17 -9 -5 -6 -14 7
-24 33 -13 34 -15 50 -6 72 9 24 8 27 -5 22 -17 -6 -31 33 -21 59 3 9 0 15 -9
15 -8 0 -15 7 -15 15 0 9 6 12 18 8 14 -5 15 -3 5 7 -10 11 -16 10 -33 -5 -12
-11 -17 -22 -11 -29 13 -16 40 -100 45 -139 2 -17 6 -38 8 -46 1 -7 -4 -16
-12 -19 -8 -2 -12 -1 -8 3 4 4 0 14 -8 22 -8 8 -12 19 -8 24 3 5 -2 16 -10 25
-9 8 -16 24 -16 33 0 10 -7 34 -15 53 -11 27 -11 38 -2 48 10 10 8 11 -9 6
-11 -3 -28 0 -38 7 -17 13 -17 14 -1 31 10 9 15 19 12 22 -3 3 -12 -4 -20 -16z
m183 -321 c0 -5 -4 -9 -10 -9 -19 0 -10 -21 12 -29 12 -4 17 -10 12 -14 -15
-9 -29 4 -53 48 -16 30 -18 41 -8 47 12 8 47 -24 47 -43z"/>
<path d="M4960 3810 c0 -5 5 -10 10 -10 6 0 10 5 10 10 0 6 -4 10 -10 10 -5 0
-10 -4 -10 -10z"/>
<path d="M3890 3800 c-9 -6 -10 -10 -3 -10 6 0 15 5 18 10 8 12 4 12 -15 0z"/>
<path d="M4039 3803 c-1 -4 -1 -15 0 -25 1 -9 -3 -19 -9 -23 -6 -3 -10 3 -10
15 0 12 -5 20 -12 18 -6 -2 -12 -31 -14 -69 -2 -35 -6 -93 -9 -129 -4 -51 0
-87 20 -165 41 -160 58 -215 68 -215 4 0 6 8 3 18 -3 9 -10 63 -15 119 -11
109 -3 215 23 304 23 75 37 84 93 57 17 -8 26 -8 38 2 12 10 15 10 18 -1 2 -8
14 -54 25 -103 20 -82 29 -106 59 -161 6 -11 20 -39 31 -62 10 -23 22 -40 26
-36 3 4 13 -2 21 -13 22 -29 19 3 -4 47 -11 20 -18 50 -17 68 1 18 -1 34 -4
36 -3 2 -7 23 -8 47 -2 24 -7 57 -12 73 -13 45 -10 83 9 91 13 5 11 8 -9 14
-21 7 -18 8 20 10 25 2 35 5 23 7 -13 2 -23 12 -23 21 -1 16 -2 15 -11 0 -12
-22 -29 -23 -29 -3 0 16 -15 21 -23 8 -7 -11 9 -135 27 -218 23 -105 18 -120
-10 -30 -13 44 -26 111 -29 148 -4 50 -12 75 -27 92 -24 28 -43 33 -34 10 3
-8 -3 -19 -14 -25 -26 -14 -33 -13 -26 5 3 9 -1 18 -9 21 -7 3 -11 12 -8 20 7
19 -11 18 -28 -2 -10 -13 -10 -17 1 -24 8 -5 12 -11 9 -14 -3 -3 -16 2 -28 11
-18 12 -20 17 -10 24 22 13 2 22 -21 9 -17 -9 -19 -14 -10 -20 7 -4 9 -13 5
-20 -6 -9 -9 -9 -16 1 -6 10 -8 9 -8 -6 0 -11 -9 -51 -20 -90 -12 -38 -21 -85
-21 -103 0 -18 -4 -31 -8 -28 -12 7 -13 77 -2 91 5 6 8 22 5 35 -2 12 -1 28 3
34 3 6 8 22 10 36 2 14 7 29 13 35 12 12 12 52 -1 60 -5 3 -11 3 -11 -2z m228
-105 c-3 -8 -6 -5 -6 6 -1 11 2 17 5 13 3 -3 4 -12 1 -19z m-237 -238 c0 -22
-2 -40 -4 -40 -2 0 -6 18 -8 40 -2 22 0 40 4 40 5 0 8 -18 8 -40z"/>
<path d="M4350 3790 l-25 -8 27 -1 c15 -1 30 4 33 9 7 11 0 11 -35 0z"/>
<path d="M4278 3773 c7 -3 16 -2 19 1 4 3 -2 6 -13 5 -11 0 -14 -3 -6 -6z"/>
<path d="M4420 3729 c0 -5 9 -9 20 -9 11 0 20 2 20 4 0 2 -9 6 -20 9 -11 3
-20 1 -20 -4z"/>
<path d="M3090 3700 c-6 -11 -8 -20 -6 -20 3 0 10 9 16 20 6 11 8 20 6 20 -3
0 -10 -9 -16 -20z"/>
<path d="M4125 3690 c3 -5 8 -10 11 -10 2 0 4 5 4 10 0 6 -5 10 -11 10 -5 0
-7 -4 -4 -10z"/>
<path d="M4926 3692 c-3 -5 9 -28 25 -53 17 -24 35 -55 40 -69 8 -20 12 -22
19 -10 14 22 12 30 -6 30 -8 0 -13 4 -9 9 3 5 -3 17 -12 27 -10 10 -18 21 -18
26 0 5 -6 13 -14 17 -7 5 -10 14 -7 20 4 6 3 11 -3 11 -5 0 -12 -4 -15 -8z"/>
<path d="M4425 3650 c8 -16 15 -46 15 -67 1 -31 2 -35 11 -20 12 20 -15 117
-32 117 -5 0 -3 -13 6 -30z"/>
<path d="M4785 3670 c3 -5 8 -10 11 -10 2 0 4 5 4 10 0 6 -5 10 -11 10 -5 0
-7 -4 -4 -10z"/>
<path d="M3062 3645 c-17 -37 -14 -45 4 -12 9 16 14 31 11 33 -2 2 -9 -7 -15
-21z"/>
<path d="M5090 3653 c0 -4 9 -14 21 -21 18 -12 20 -11 17 5 -3 17 -38 32 -38
16z"/>
<path d="M5044 3599 c-19 -22 -19 -22 4 -8 12 8 22 17 22 21 0 12 -6 9 -26
-13z"/>
<path d="M3032 3575 c-17 -37 -14 -45 4 -12 9 16 14 31 11 33 -2 2 -9 -7 -15
-21z"/>
<path d="M4921 3584 c0 -11 3 -14 6 -6 3 7 2 16 -1 19 -3 4 -6 -2 -5 -13z"/>
<path d="M4514 3532 c3 -6 0 -13 -6 -16 -7 -3 -4 -5 6 -3 21 2 25 19 5 26 -6
2 -9 -1 -5 -7z"/>
<path d="M5000 3490 c-13 -8 -12 -10 3 -10 9 0 17 5 17 10 0 12 -1 12 -20 0z"/>
<path d="M4525 3420 c-10 -11 -14 -20 -8 -20 5 0 18 9 28 20 10 11 14 20 8 20
-5 0 -18 -9 -28 -20z"/>
<path d="M4480 3394 c0 -8 5 -12 10 -9 6 3 10 10 10 16 0 5 -4 9 -10 9 -5 0
-10 -7 -10 -16z"/>
<path d="M3940 3346 c0 -20 2 -36 4 -36 8 0 12 61 4 66 -4 3 -8 -11 -8 -30z"/>
<path d="M0 2122 c0 -73 12 -86 100 -106 91 -22 132 -21 148 4 18 29 -2 55
-52 70 -54 16 -142 58 -157 76 -26 31 -39 16 -39 -44z"/>
<path d="M6945 394 c-56 -20 -125 -55 -160 -80 -16 -12 -46 -29 -65 -38 -19
-9 -51 -25 -70 -36 -19 -10 -56 -24 -82 -31 -45 -12 -65 -29 -34 -29 7 0 26
-7 42 -14 15 -8 31 -13 36 -10 4 3 14 2 21 -3 19 -12 84 -17 177 -13 30 1 60
1 65 0 6 -2 23 2 38 8 16 7 42 12 58 12 16 0 37 4 47 9 9 5 53 14 97 20 97 13
135 20 155 28 28 11 70 13 70 3 0 -14 42 -2 97 26 24 14 49 22 54 19 5 -4 9
-4 9 -1 0 7 -85 63 -132 87 -97 50 -338 74 -423 43z"/>
<path d="M7440 230 c-14 -11 -19 -20 -12 -20 7 0 22 9 34 20 28 26 11 26 -22
0z"/>
<path d="M937 23 c-15 -14 -6 -23 23 -23 20 0 30 5 30 15 0 15 -40 21 -53 8z"/>
</g>
</svg>
